<svg width="381" height="422" viewBox="0 0 381 422" fill="none" xmlns="http://www.w3.org/2000/svg">
<g clip-path="url(#clip0_1268_93)">
<path d="M366.95 49.04C374.14 39.04 378.59 28.18 380.17 16.75C381.13 9.78999 377.3 2.87999 370.62 0.709994C369.16 0.229995 367.67 0.00999451 366.21 0.00999451C360.75 0.00999451 355.62 3.17999 353.29 8.36999C352.88 9.27999 352.42 10.18 351.91 11.05C349.14 15.82 345.56 18.9 342.68 20.99C342.38 20.53 342.06 20.08 341.71 19.65C338.6 15.76 333.89 13.53 328.79 13.53C326.65 13.53 324.47 13.92 322.32 14.69C319.9 15.56 317.83 16.73 316.09 17.87C313.3 15.45 309.76 14.14 305.94 14.14C302.59 14.14 299.73 15.17 297.61 16.07C296.72 16.45 295.84 16.84 294.97 17.23C292.36 15.28 289.16 14.16 285.71 14.16C283.48 14.16 281.26 14.63 279.14 15.55C277.6 16.22 276.34 16.93 275.32 17.5C275.02 17.67 274.72 17.84 274.41 18.01L271.78 19.41C269.74 18.25 267.25 17.49 264.23 17.49C260.54 17.49 257.55 18.75 255.12 19.98C254.4 20.34 253.69 20.71 252.97 21.08C251.6 21.79 250.27 22.47 249 23.07C246.65 22.06 243.81 21.36 240.46 21.36C238.67 21.36 237.09 21.55 235.76 21.74C232.3 22.21 229.24 23.13 226.64 23.95C223.88 24.82 221.13 25.74 218.38 26.65C213.99 28.11 209.85 29.48 205.66 30.7C204.59 31.01 203.02 31.23 201.9 31.36C201.35 31.42 200.98 30.81 201.29 30.35C201.89 29.45 202.75 28.19 203.45 27.26C204.1 26.4 204.76 25.52 205.41 24.62C209.13 19.45 208.94 11.15 204.66 6.42999C201.91 3.39999 198.07 1.78999 194.17 1.78999C191.91 1.78999 189.63 2.32999 187.53 3.43999C187.31 3.55999 187.1 3.65999 186.9 3.75999C186.2 4.11999 185.33 4.55999 184.32 5.18999C176.54 10.09 165.21 22.12 161.29 26.39C160.39 27.37 159.12 27.92 157.79 27.92H147.82C146.31 27.92 145.03 26.86 144.67 25.39C143.59 21.07 141.34 16.89 137.9 13.12C132.04 6.70999 124.3 3.31999 115.52 3.31999C112.81 3.31999 110.05 3.62999 107.07 4.25999C85.3098 8.89999 69.6998 26.8 67.2998 49.88C66.6398 56.2 70.2698 62.18 76.1698 64.52C77.8698 65.19 79.6398 65.52 81.3898 65.52C81.4498 65.52 81.5198 65.52 81.5798 65.52C81.8498 66.13 82.1498 66.73 82.4998 67.3C82.6798 67.6 82.8698 67.9 83.0698 68.19C83.3398 68.58 83.3598 69.1 83.0898 69.5C80.7698 73.05 78.7498 78.19 81.1798 84.41C81.9898 86.48 83.2098 88.31 84.7598 89.83C84.5098 90.18 84.2498 90.51 83.9998 90.85C83.2898 89.99 82.4798 89.2 81.5598 88.5C79.0298 86.6 76.0298 85.65 73.0398 85.65C69.5898 85.65 66.1598 86.9 63.4698 89.37C62.2898 90.45 61.0898 91.52 59.8898 92.59C56.9598 95.21 53.9398 97.91 50.9798 100.9C46.2998 105.63 40.5398 112.23 37.5198 121.38C35.0798 128.76 35.6098 136.3 39.0298 142.6C39.7598 143.94 40.6098 145.2 41.5598 146.37C42.1898 147.15 42.2998 148.22 41.8398 149.11L38.1498 156.25C37.4498 157.61 35.9198 158.29 34.4198 157.99C33.5298 157.81 32.6298 157.72 31.7198 157.72C30.0398 157.72 28.3398 158.02 26.6998 158.64C25.5798 159.06 24.4898 159.56 23.4198 160.13C23.1898 160.25 22.3698 160.7 21.4798 161.28C13.7298 166.31 5.53978 175.45 2.77978 183.3H2.74978C1.31978 187.01 0.439781 190.98 0.129781 195.07C-1.03022 210.61 6.24978 223.71 20.6198 231.95C26.7298 235.45 33.0798 237.22 39.4998 237.22C42.2598 237.22 44.9798 236.89 47.6498 236.25C48.5598 241.04 51.9098 245.16 56.6998 246.91C58.2998 247.49 59.9398 247.78 61.5698 247.78C66.3898 247.78 71.0298 245.31 73.6698 241L74.7598 239.21C74.9198 239 75.0798 238.78 75.2398 238.57C75.4298 238.31 75.6898 237.97 75.8198 237.81C77.1798 236.45 78.5098 235.04 79.8398 233.64C80.1198 242.31 78.1998 251.37 73.6698 262.81C71.8798 267.33 69.6498 272.97 67.8398 278.69C65.2698 286.83 66.8898 294.4 72.1698 299.82C71.9098 300.43 71.6298 301.04 71.3498 301.67C70.8398 302.81 70.3298 303.96 69.8498 305.11C69.0598 306.97 66.6598 312.62 69.3198 319.02C69.5298 319.51 69.7498 319.99 69.9998 320.45C69.0098 322.43 67.9898 324.47 66.9998 326.61C63.5198 334.16 65.8598 339.85 67.5598 342.57C67.7098 342.81 67.8798 343.07 68.0698 343.33C67.4698 344.84 66.8898 346.39 66.3498 348.01C63.7198 355.86 66.3698 361.26 68.1898 363.78C68.3398 363.99 68.4898 364.19 68.6498 364.38C68.5698 364.52 68.4898 364.65 68.3998 364.79C66.5698 367.9 65.3798 371.5 64.9498 375.22C64.5098 379.07 65.2498 382.74 67.0398 385.84C66.1598 386.16 65.2198 386.45 64.2098 386.76C60.5898 387.88 57.0898 388.14 53.3698 388.41C50.9098 388.59 48.3298 388.59 48.2298 388.59C47.2998 388.59 46.5098 388.57 45.9098 388.55L43.9798 388.45C43.7298 388.44 43.4798 388.43 43.2298 388.43C36.4598 388.43 30.5398 393.25 29.2898 400.06C28.0398 406.87 31.8898 413.08 38.0098 415.79C40.4798 416.88 43.0298 417.85 45.6098 418.66C50.1498 420.09 59.6798 421.76 71.5698 421.76C72.4098 421.76 73.2698 421.76 74.1398 421.73C103.27 420.74 113.68 401.05 118.72 396.33C119.37 395.72 120.23 395.37 121.13 395.32C121.33 395.32 121.5 395.3 121.63 395.28C122.07 395.23 122.47 395.49 122.6 395.92C122.7 396.27 122.82 396.62 122.95 396.96C125.36 403.43 131.19 407.84 138.94 409.06C143.02 409.7 147.3 410.02 152.02 410.02C152.61 410.02 153.19 410.02 153.78 410.01C159.71 409.91 165.15 408.65 170 406.29C173.13 409.19 177.36 410.81 182.06 410.81C182.5 410.81 182.95 410.8 183.41 410.77C190.04 410.35 195.77 408.79 200.55 406.12C203.78 409.72 208.5 411.78 213.59 411.78C214.8 411.78 216.03 411.67 217.27 411.44C220.04 410.94 226.32 409.8 232.55 405.8C235.53 410.45 240.29 413.55 246.71 414.99C250.33 415.8 254 416.2 257.95 416.2C264.88 416.2 271.4 414.94 276.96 413.75C305.27 407.73 329.31 392.52 348.41 368.56C351.12 365.16 353.56 361.72 355.92 358.39C356.85 357.08 357.78 355.77 358.72 354.47C363.11 348.41 362.45 339.87 356.77 335C356.73 334.96 356.68 334.93 356.64 334.89C355.26 333.73 355.16 331.68 356.44 330.42C367.05 320 373.37 305.83 375.27 288.14C376.9 273.02 373.41 258.72 370.2 247.95C364.43 228.64 351.44 214.38 332.64 206.7C330.04 205.64 327.4 204.69 324.69 203.83C323.31 203.4 322.9 201.66 323.94 200.65C332.37 192.44 338.82 181.85 343.2 168.98C344.1 166.33 344.77 163.82 345.42 161.38C345.68 160.42 345.93 159.45 346.2 158.49C347.73 153.05 345.87 147.43 341.85 143.94C340.57 142.82 340.05 141.09 340.6 139.48C343.18 131.91 343.84 123.24 342.44 113.71C340.51 100.6 334.52 89.58 328.87 81.01C328.62 80.63 328.82 80.14 329.26 80.02C332.02 79.3 334.96 78.22 337.76 76.33C350.17 67.97 359.71 59.02 366.93 48.99L366.95 49.04ZM176.6 213.65C176.6 213.65 176.6 213.69 176.6 213.72C176.6 213.72 176.58 213.7 176.57 213.69C176.58 213.68 176.59 213.66 176.6 213.65Z" fill="url(#paint0_linear_1268_93)"/>
<path d="M347.5 345.78C344.11 350.45 340.88 355.25 337.29 359.76C320.82 380.42 300.03 394.37 273.97 399.92C265.99 401.62 257.94 403.03 249.78 401.19C244.19 399.93 242.59 397 244.22 391.45C244.97 388.91 245.88 386.41 246.53 383.84C247.28 380.9 245.97 379.59 242.94 380.09C237.81 380.93 233.46 383.04 230.74 387.73C227.17 393.88 221.28 396.33 214.71 397.51C211.64 398.07 209.89 396.5 210.44 393.45C211.01 390.3 212.37 387.31 213.11 384.18C213.51 382.51 213.34 380.7 213.43 378.96C211.7 379.25 209.86 379.27 208.25 379.88C204.55 381.29 201.86 383.95 199.9 387.4C196.06 394.13 189.63 396.21 182.47 396.66C179.35 396.86 178.15 395.11 179.33 392.18C180.41 389.51 181.93 387.01 183.27 384.44C184.08 382.9 184.99 381.4 185.69 379.81C185.98 379.15 185.84 378.31 185.9 377.55C185.11 377.57 184.25 377.39 183.55 377.64C179.15 379.23 175.24 381.73 172.63 385.6C168 392.47 161.57 395.76 153.49 395.89C149.36 395.96 145.17 395.76 141.09 395.12C135.77 394.28 134.4 390.7 137.85 386.6C142.45 381.13 147.53 376.06 152.2 370.64C159.8 361.82 165.96 352.13 169.52 340.91C171.03 336.15 177.31 332.3 183.59 332.33C191.66 332.37 199.73 332.68 207.79 332.89C214.44 333.06 221.1 333.54 227.75 333.38C249.74 332.86 270.81 328.14 290.46 318.18C306.54 310.03 318.72 298.13 324 280.26C327.16 269.56 327.45 258.64 326.37 247.65C325.85 242.29 325.26 236.9 324.16 231.64C322.57 224.03 317.86 221.05 310.37 223.3C304.29 225.12 298.31 227.53 292.61 230.34C278.32 237.39 264.29 244.97 249.99 252.02C242.41 255.75 234.6 259.05 226.72 262.12C215.31 266.57 204.08 265.69 193.3 259.84C180.79 253.06 169.75 238.28 166.88 224.07C168.14 225.42 169.03 226.4 169.94 227.35C176.97 234.71 185.33 239.2 195.75 238.83C202.55 238.59 208.67 235.92 214.55 232.76C223.69 227.85 232.69 222.64 242.65 219.46C261.34 213.5 280.43 211.32 299.98 213.32C309.37 214.28 318.47 216.29 327.23 219.87C342.13 225.96 351.99 236.7 356.57 252.06C359.93 263.32 362.4 274.86 361.13 286.68C359.43 302.48 353.52 316.5 339.92 325.68C326.87 334.49 312.83 341.54 296.97 343.96C284.65 345.84 272.46 344.95 260.37 342.03C248.15 339.08 235.91 338.31 223.72 342.25C214.75 345.15 207.76 350.69 202.62 358.53C201.42 360.37 200.65 362.55 199.97 364.66C199.46 366.24 200.2 367.02 201.99 366.52C204.82 365.73 206.8 363.97 208.17 361.45C210.22 357.67 212.82 354.33 216.41 351.91C221.24 348.66 226.45 346.71 232.37 348.2C235.47 348.98 236.38 350.54 235.29 353.56C234.42 355.96 233.1 358.2 231.95 360.5C231.36 361.69 230.59 362.8 230.12 364.04C229.86 364.73 229.8 365.72 230.12 366.33C230.3 366.67 231.5 366.68 232.15 366.5C235.89 365.5 239.26 363.73 240.99 360.13C245.19 351.37 252.85 348.55 261.69 347.72C264.3 347.47 266.98 347.37 269.58 347.63C272.54 347.93 273.98 349.57 273.74 352.51C273.47 355.8 272.79 359.06 272.11 362.3C270.77 368.68 271.66 371.01 277.27 374.24C285.2 378.82 293.63 378.72 302.14 376.42C316.67 372.5 326.9 364.63 335.56 357.27C339.75 353.71 343 350.46 345.23 348.1C345.97 347.34 346.72 346.58 347.46 345.82L347.5 345.78Z" fill="#0025FF"/>
<path d="M71.8598 102.13C71.5898 102.67 71.1798 103.49 70.6698 104.48C69.7198 106.32 69.5998 106.49 69.2698 107.17C68.6898 108.39 68.0498 109.74 67.7898 111.43C67.6098 112.64 67.3398 114.41 68.1498 115.85C69.1498 117.63 71.3998 118.29 73.4298 118.51C79.3998 119.17 85.1798 118.02 90.9498 116.75C107.26 113.14 122.32 106.22 137.37 99.23C143.68 96.3 149.84 92.83 156.97 92.34C159.83 92.15 162.82 92.23 165.6 92.85C171.22 94.1 174.51 99.44 174.96 106.32C175.8 119.13 170.38 129.23 161.53 137.78C157.72 141.47 153.45 144.7 149.39 148.13C148.83 148.6 148.28 149.08 147.5 149.74C152.43 149.01 157.02 148.94 161.49 150.43C166.22 152.01 167.62 155.01 165.56 159.52C164.22 162.45 162.39 165.16 160.87 168.01C159 171.5 159.63 172.61 163.52 172.92C171.15 173.53 177.04 182 174.52 189.44C173.18 193.39 171.19 197.3 168.71 200.64C158.58 214.23 146.34 225.67 132.21 235.05C130.69 236.06 128.96 236.75 127.33 237.59C126.16 238.09 124.99 238.58 123.82 239.08C125.07 238.11 127.16 236.41 129.5 234.04C129.5 234.04 142.09 221.86 144.16 206.11C144.5 203.53 144.36 200.76 143.79 198.23C142.92 194.37 139.91 192.41 136.22 191.46C135.02 191.15 133.78 190.96 132.59 190.6C129.94 189.8 129.31 188.41 130.98 186.18C132.77 183.8 134.95 181.72 136.97 179.51C137.19 179.26 137.45 179.04 137.67 178.8C139.68 176.59 142.34 174.42 140.81 171.06C139.38 167.93 136.04 167.22 133 167.01C126.29 166.55 119.93 167.54 113.83 170.99C95.9498 181.1 80.1298 193.8 65.3298 207.92C61.4898 211.58 57.4298 215.09 53.1498 218.21C45.0498 224.11 36.3198 224.61 27.6298 219.64C18.6498 214.49 13.4298 206.7 14.2298 196.12C14.4398 193.33 15.0298 190.76 15.9398 188.37C15.9398 188.37 19.2998 179.57 29.1598 173.16C29.6298 172.86 30.1098 172.6 30.1098 172.6C30.6998 172.28 31.2398 172.05 31.6898 171.88C30.1198 174.01 28.8998 175.86 28.0298 177.26C25.5098 181.32 25.1398 182.89 24.8498 183.71C23.9598 186.26 24.0998 188.96 26.2598 190.83C27.5398 191.93 29.1598 192.53 30.7898 192.97C40.0398 195.45 47.7198 192.39 55.8698 188.33C65.1998 183.68 74.4498 178.84 83.5398 173.73C94.3198 167.67 104.9 161.21 115.27 154.47C121.7 150.3 127.29 145.03 131.08 138.13C133.1 134.46 134 130.56 134.21 126.46C134.78 115.38 138.5 106.06 148.72 100.24C141.83 101.89 135.77 105.08 130.28 109.3C124.69 113.59 119.29 118.12 113.78 122.52C100.95 132.76 86.6998 139.99 70.3098 142.24C66.6298 142.75 62.6098 142.33 58.9898 141.38C51.6498 139.45 48.5498 133.03 50.9398 125.82C52.8998 119.9 56.7498 115.18 61.0298 110.85C64.8498 106.99 68.9998 103.47 73.0098 99.8C72.6298 100.57 72.2498 101.34 71.8698 102.11L71.8598 102.13Z" fill="#0025FF"/>
<path d="M245.45 186.29C246.32 185.66 247.45 185.21 248.01 184.38C249.58 182.06 251.03 179.64 252.32 177.15C253.93 174.04 255.8 171.31 259.24 170.01C261.08 169.32 262.82 169.32 264.39 170.63C266.08 172.04 266.65 173.86 266.2 175.99C265.9 177.41 265.51 178.82 265.08 180.59C268.17 180.47 269.98 178.98 271.4 177.02C272.96 174.87 274.32 172.58 275.77 170.36C278.16 166.68 281.76 164.95 285.92 164.32C288.48 163.93 289.86 165.2 289.77 167.76C289.71 169.41 289.39 171.05 289.18 172.69C288.36 179.09 291.86 183.17 298.36 183.55C302.52 183.8 306.25 182.6 309.71 180.46C318.18 175.21 324.5 167.95 329.26 159.26C330.13 157.67 331.01 156.1 331.89 154.51C332.1 154.58 332.31 154.65 332.52 154.71C331.6 157.97 330.83 161.27 329.74 164.47C324.55 179.72 315.89 192.21 301.18 199.77C296.51 202.17 291.67 204.09 286.38 204.67C280.85 205.28 278.45 203.35 278.08 197.81C277.98 196.23 278.01 194.64 277.84 193.08C277.57 190.56 276.34 189.89 274.08 191.07C271.74 192.3 269.87 193.97 269.26 196.75C268.14 201.83 264.67 204.65 259.9 206.1C257.2 206.91 255.84 205.66 256.49 202.88C257.04 200.54 257.93 198.29 258.46 195.95C258.67 195.01 258.34 193.93 258.25 192.92C257.24 193.07 256.13 193 255.23 193.4C252.43 194.65 250.61 196.77 249.77 199.8C248.36 204.82 244.67 207.66 239.99 209.31C236.46 210.55 235.07 209.26 235.92 205.56C236.44 203.31 237.36 201.16 238.06 198.95C238.4 197.88 238.65 196.78 238.95 195.7L238.31 195.17C237.11 196.14 235.69 196.95 234.76 198.14C233.66 199.55 232.63 201.21 232.19 202.92C230.59 209.11 226.08 211.5 220.38 212.39C218.27 212.72 216.05 212.93 213.96 212.64C210.7 212.19 209.57 210.17 210.72 207.05C211.6 204.65 212.88 202.39 214.08 200.13C216.64 195.3 219.84 190.73 220.45 185.11C220.65 183.25 220.65 181.26 220.22 179.45C218.05 170.28 221.55 162.73 230.33 159.16C234.05 157.65 238.1 156.79 242.07 156.07C251.12 154.42 260.26 153.27 269.28 151.47C275.11 150.31 280.3 147.44 285.13 143.91C293.34 137.92 297.03 129.43 298.69 119.8C300.93 106.85 299.33 94.32 294.3 82.22C293.48 80.24 292.46 78.29 291.22 76.55C289.02 73.44 285.56 72.54 282.19 74.29C279.85 75.51 277.55 76.96 275.58 78.7C269.22 84.31 263.11 90.2 256.72 95.78C250.96 100.81 245.1 105.73 239.04 110.39C232.67 115.29 225.4 115.78 217.98 113.27C206.74 109.46 198.99 101.5 192.42 91.12C195.22 92.87 197.34 94.37 199.61 95.6C208.34 100.31 215.54 99.5 223 92.98C225.13 91.12 227.07 89.05 229.11 87.09C240.15 76.51 253.57 71.09 268.52 69.1C276.16 68.08 283.76 68.23 291.31 69.99C301.23 72.31 309.19 77.58 314.95 85.9C321.27 95.03 326.72 104.71 328.36 115.88C331.06 134.22 324.72 148.48 304.56 154.86C299.11 156.59 293.16 156.81 287.41 157.49C278.65 158.53 269.91 159.73 261.73 163.14C257.95 164.72 254.24 166.82 251.05 169.37C245.82 173.54 245.04 179.66 244.76 185.8C244.98 185.98 245.2 186.16 245.42 186.34L245.45 186.29Z" fill="#0025FF"/>
<path d="M125.26 269.78C125.61 269.59 126.03 268.41 126.24 268.05C126.63 267.38 127.03 266.7 127.43 266.04C128.2 264.77 129 263.52 129.84 262.3C131.48 259.9 133.27 257.59 135.26 255.47C139.19 251.29 144.13 247.59 149.6 245.72C161.02 241.8 172.99 250.67 178.65 260.11C180.32 262.89 181.19 264.68 181.35 265.63C181.9 268.86 180.75 271.48 180.37 272.32C179.26 274.77 177.46 276.31 173.91 279.3C169.67 282.87 167.94 283.49 167.45 285.76C167.42 285.9 166.91 288.42 168.32 290.3C171.66 294.73 182.65 291.47 184.64 290.87C188.41 289.75 192.37 287.61 197.22 285.58C199.58 284.59 201.92 283.43 204.39 282.84C207.97 282 209.19 283.22 208.93 286.82C208.83 288.23 208.52 289.62 208.42 291.02C208.26 293.29 209.46 294.72 211.5 294.04C215.09 292.84 218.57 291.23 221.94 289.51C223.3 288.81 222.91 287.23 221.35 286.8C220.18 286.48 218.94 286.21 217.72 286.29C216.68 286.36 215.57 286.76 214.58 286.25C214.38 286.15 214.16 286 214.08 285.76C213.84 285.03 214.51 284.57 215.07 284.28C216.47 283.57 218 283.21 219.41 282.55C220.33 282.12 221.21 281.6 221.99 280.95C222.37 280.63 222.75 280.28 222.81 279.77C222.85 279.44 222.69 278.72 220.83 277.2C217.55 274.52 213.5 274.2 209.54 273.86C206.73 273.62 203.89 273.81 200.97 273.35C204.7 272.35 208.4 271.21 212.17 270.37C222.38 268.1 226.46 267.27 229.23 266.98C229.23 266.98 241.82 265.67 245.31 269.43C245.6 269.75 246.4 270.6 246.43 271.78C246.46 273.08 245.54 274.06 244.66 274.97C242.81 276.88 241.47 276.88 239.29 279.02C238.75 279.55 238.35 280.02 238.12 280.31C237.95 280.56 237.79 280.9 237.9 281.17C238.08 281.59 238.81 281.57 239.98 281.68C241.88 281.86 243.31 282.02 243.91 282.92C244.11 283.22 244.15 283.5 244.2 283.86C244.42 285.43 243.41 286.72 242.86 287.42C242.32 288.11 241.81 288.52 241.17 289.04C240.26 289.77 239.43 290.28 238.83 290.61C238.38 290.78 238.1 291.09 238.14 291.3C238.18 291.54 238.66 291.77 239.29 291.63C240.97 291.52 243.06 291.3 245.45 290.88C245.45 290.88 246.45 290.7 247.46 290.49C254.5 288.99 279.58 276.25 289.08 268.78C290.4 267.74 292.01 266.34 293.61 264.34C294.57 263.14 295.24 262.07 295.66 261.36C295.24 262.38 294.58 263.93 293.66 265.78C284.92 283.38 271 293.05 258.48 300.55C252.76 303.98 246.61 306.87 239.99 309.18C239.75 309.26 239.51 309.32 239.27 309.38C236.83 309.95 235.09 311.03 233.55 313.36C232.05 315.64 229.33 317.35 226.81 318.68C218.45 323.1 209.33 325.32 200.14 327.25C197.88 327.72 195.59 328.03 193.28 328.14C196.73 326.96 199.53 325.79 201.53 324.89C204.65 323.49 208.02 321.77 211.17 318.79C213.3 316.78 213.91 315.54 213.59 314.64C213.39 314.08 212.86 313.75 212.42 313.54C210.26 313.01 208.67 313.23 207.62 313.53C206.12 313.96 205.75 314.5 202.75 315.98C201.64 316.53 200.48 317 199.3 317.4C194.34 319.1 192.89 318.19 192.24 313.05C191.77 309.37 190.12 308.43 186.78 310.2C184.22 311.56 181.78 313.17 179.34 314.75C179.34 314.75 172.65 319.64 163.83 319.98C160.9 320.09 158.14 319.57 158.14 319.57C157.56 319.46 157.09 319.35 156.77 319.27C157.35 322.62 157.73 325.81 158.48 328.92C160.72 338.16 158.51 346.58 153.81 354.47C147.42 365.17 138.44 373.17 127.37 378.82C127.03 378.99 126.69 379.14 126.33 379.28C125.42 379.64 124.7 379.9 123.09 380.38C120.12 381.27 119.96 381.24 119.94 381.2C119.93 381.16 120.02 381.08 120.42 380.86C121.08 380.34 121.86 379.68 122.67 378.87C122.67 378.87 123.3 378.24 123.9 377.55C135.16 364.52 136.56 341.19 136.56 341.19C137.48 328.73 136.48 316.49 134.16 304.26C132.52 295.61 134.79 287.45 138.25 279.57C139.78 276.08 141.51 272.66 142.86 269.1C143.63 267.07 144.12 264.28 141.35 263.82C139.07 263.44 136.94 264.46 134.88 265.3C132.64 266.22 130.44 267.24 128.22 268.21C127.19 268.66 126.22 269.25 125.23 269.77L125.26 269.78Z" fill="#0025FF"/>
<path d="M61.54 233.61C62.13 229.79 63.27 224.72 65.61 219.09C67.54 214.44 70.48 208.74 75.22 203.13C82.52 194.49 92.13 188.32 103.47 184.19C111.25 181.35 117.45 184.02 121.72 191.23C126.07 198.59 127.1 206.5 124.65 214.74C119.75 231.25 115.08 247.82 107.83 263.53C105.2 269.23 104.19 275.41 104.48 281.75C104.6 284.48 105.34 286.77 108.06 288.07C110.07 289.03 110.71 290.89 110.16 292.9C109.57 295.04 108.67 297.1 107.76 299.13C106.95 300.95 105.86 302.64 105.07 304.47C103.98 306.97 104.41 307.59 106.88 308.82C107.63 309.19 108.51 310.43 108.42 311.16C108.14 313.26 107.47 315.33 106.82 317.37C105.84 320.45 104.65 323.47 103.74 326.56C102.96 329.23 103.7 329.97 106.35 329.53C109.23 329.05 110.39 330.08 109.55 332.91C108.86 335.24 107.53 337.38 106.43 339.58C104.92 342.6 103.33 345.58 101.84 348.62C101.58 349.15 101.66 349.85 101.49 351.26C103.53 349.89 104.94 348.79 106.5 347.96C107.37 347.5 108.73 347.01 109.4 347.39C110.07 347.76 110.58 349.28 110.4 350.13C109.92 352.42 109.29 354.77 108.23 356.84C106.73 359.79 104.71 362.46 103.1 365.36C102.64 366.19 102.85 367.38 102.76 368.41C103.71 368.48 104.71 368.78 105.61 368.59C112.32 367.17 114.45 369.04 112.75 375.93C111.71 380.12 109.94 384.32 107.63 387.96C99.82 400.27 88.73 407.3 73.82 407.6C61.79 407.84 52.81 406.11 49.84 405.18C47.05 404.3 44.79 403.36 43.21 402.64C43.89 402.68 44.57 402.71 45.24 402.75C45.98 402.78 46.98 402.81 48.16 402.81C48.16 402.81 51.27 402.81 54.37 402.59C58.52 402.29 63.21 401.95 68.38 400.34C72.24 399.14 77.12 397.62 81.69 393.3C81.69 393.3 85.47 390.53 88.55 382.44C88.81 381.76 88.95 381.01 89.04 380.28C89.25 378.54 88.35 378.01 86.78 378.4C85.25 378.79 83.76 379.34 82.22 379.65C79.99 380.1 78.73 379.12 78.99 376.88C79.18 375.21 79.73 373.47 80.57 372.02C82.04 369.52 83.93 367.27 85.51 364.84C86.27 363.67 86.97 362.38 87.3 361.04C88.29 357.11 86.52 355.09 82.6 355.95C79.89 356.55 78.66 355.76 79.74 352.55C81.13 348.39 82.98 344.38 84.66 340.33C86.21 336.59 85.84 335.97 81.89 335.9C79.41 335.85 78.75 334.92 79.82 332.6C81.38 329.21 83.14 325.91 84.75 322.54C85.36 321.27 85.81 319.92 86.27 318.59C86.84 316.96 86.27 315.94 84.64 315.28C82.03 314.23 81.73 313.33 82.85 310.7C84.31 307.27 85.95 303.9 87.19 300.4C88.85 295.72 88.06 293.85 83.92 291.28C80.98 289.45 80.02 287.11 81.32 283.02C82.92 277.97 84.86 273.02 86.81 268.08C91.41 256.46 94.57 244.55 93.91 231.94C93.73 228.5 93.17 224.96 92.04 221.72C89.52 214.46 83.17 212.3 77.09 216.9C72.89 220.07 69.4 224.19 65.65 227.95C64.67 228.93 63.89 230.13 63.02 231.22C62.52 232.04 62.02 232.85 61.53 233.67L61.54 233.61Z" fill="#0025FF"/>
<path d="M194.12 15.96C191.94 19.03 189.63 21.69 188.03 24.72C186.55 27.53 185.43 30.66 184.88 33.79C184.11 38.17 185.95 41.07 189.93 43.1C196.3 46.35 202.96 46.23 209.58 44.3C216.73 42.21 223.76 39.71 230.87 37.46C233.08 36.76 235.33 36.09 237.61 35.78C240.27 35.42 242.84 35.13 245.31 37.35C246.41 38.34 249.22 38.22 250.89 37.61C254.53 36.29 257.97 34.39 261.45 32.63C264.57 31.06 265.26 31.23 266.41 34.45C267.11 36.41 268.31 37.18 270.21 36.21C273.83 34.37 277.4 32.43 280.99 30.53C282.23 29.87 283.43 29.11 284.72 28.55C286.1 27.95 286.95 28.62 287.23 30.02C287.33 30.5 287.29 31.01 287.29 31.51C287.29 36.25 287.65 36.45 292.06 34.31C295.72 32.54 299.35 30.69 303.09 29.1C306.81 27.52 307.56 28.14 307.29 32.03C307.28 32.2 307.29 32.36 307.27 32.53C307.12 34.25 306.51 36.5 308.54 37.13C310.26 37.66 312.62 37.56 314.2 36.76C316.6 35.56 318.52 33.43 320.76 31.85C322.77 30.43 324.78 28.83 327.05 28.02C330.11 26.92 331.7 28.66 331 31.8C330.62 33.5 330.08 35.17 329.78 36.88C329.41 39.03 330.4 40.41 332.63 40.19C335 39.95 337.45 39.64 339.64 38.8C343.32 37.39 345.06 36.45 348.01 34.49C351.86 31.93 358.93 27.1 364.12 18.17C365.08 16.51 365.76 15.09 366.17 14.18C364.92 24.12 361.09 32.86 355.41 40.77C348.48 50.41 339.6 58.05 329.82 64.64C327.97 65.89 325.55 66.46 323.31 66.89C320.53 67.42 319.06 65.88 319.33 63.01C319.49 61.28 320.04 59.6 320.23 57.87C320.32 57.04 320.24 55.77 319.74 55.41C319.21 55.03 317.89 55.23 317.24 55.66C314.25 57.6 311.48 59.88 308.43 61.7C306.36 62.94 304.02 64.01 301.67 64.45C298.9 64.96 297.73 62.99 298.99 60.45C299.91 58.6 300.94 56.8 301.91 54.97C301.97 54.85 301.88 54.65 301.79 54.09C300.87 54.27 299.85 54.23 299.09 54.66C296.37 56.22 293.77 57.98 291.08 59.6C288.83 60.95 286.66 62.56 284.23 63.43C281.75 64.31 280.69 63.17 280.78 60.55C280.95 56.01 280.33 55.52 275.9 57.2C272.1 58.64 268.4 60.33 264.62 61.81C261.67 62.97 260.7 62.46 259.75 59.42C259.16 57.52 257.89 57.11 256.28 57.92C254.14 59.01 252.12 60.33 250.01 61.48C248.49 62.32 246.97 63.25 245.33 63.78C243 64.54 240.66 64.55 239.27 61.94C238.24 59.99 236.84 60.43 235.28 61.17C228.08 64.56 221.06 68.44 213.61 71.15C203 75.02 192.01 77.68 180.53 77.03C176.23 76.79 172.18 75.65 168.56 73.26C162.33 69.15 159.78 62.34 161.77 54.73C162.42 52.26 163.24 49.77 164.41 47.51C170.87 34.99 179.86 24.72 191.84 17.18C192.51 16.76 193.23 16.43 194.13 15.96H194.12Z" fill="#0025FF"/>
<path d="M77.1796 116.76C81.0296 113.37 84.9397 110.03 88.7297 106.57C93.6297 102.1 97.5196 96.83 100.59 90.97C101.43 89.36 102.21 87.69 102.8 85.97C104.57 80.77 103.38 79.51 97.9697 80.52C97.8797 80.54 97.5697 80.6 97.1597 80.6C96.5597 80.6 96.0697 80.44 95.7297 80.3C95.1997 80.12 94.5696 79.81 94.3396 79.22C93.9496 78.23 94.9297 77.04 96.7197 74.98C100.41 70.74 102.26 68.63 102.6 68.27C103.08 67.77 104.26 66.27 105.39 64.15C106.59 61.89 105.8 60.66 103.2 60.68C101.21 60.7 99.2296 61.06 97.2396 61.07C94.6696 61.07 93.6797 59.62 94.8997 57.34C96.2297 54.87 97.9996 52.65 99.5196 50.27C100.59 48.6 101.73 46.93 102.49 45.12C103.47 42.81 102.64 41.2 100.2 40.57C95.2396 39.28 90.6797 40.37 87.0797 43.96C84.7697 46.27 83.0196 49.14 81.3396 51.34C82.9496 35.86 92.8596 21.77 109.96 18.12C116.47 16.73 122.52 17.37 127.37 22.68C132.22 27.98 132.47 33.98 127.85 39.5C126.09 41.6 124.08 43.49 122.34 45.62C121.76 46.33 120.7 48.02 121.39 48.9C122.42 50.22 124.96 49.92 126.42 50.03C129.51 50.27 130.51 51.82 128.9 54.53C127.39 57.08 125.42 59.37 123.59 61.73C121.71 64.16 119.65 66.46 117.88 68.97C116.35 71.13 116.84 71.91 119.41 71.98C123.15 72.07 124.4 73.32 122.81 76.75C120.46 81.82 117.74 86.86 114.36 91.29C109.77 97.32 102.51 103.9 90.7197 110.51C85.2697 113.57 80.4696 115.55 77.1396 116.77L77.1796 116.76Z" fill="#0025FF"/>
<path d="M194.16 212.19C197.14 208.48 199.84 204.67 200.39 199.85C201.55 189.69 197.35 181.78 189.75 175.42C188.42 174.31 186.86 173.47 185.38 172.53C176.98 167.16 175.67 156.93 182.46 149.63C184.16 147.8 185.93 146.04 187.61 144.19C190.93 140.51 192.62 136.21 192.42 131.22C192.29 128.14 190.47 126.61 187.65 127.86C184.13 129.44 180.86 131.59 177.53 133.48C181.23 125.06 185.73 116.96 194.31 112.01C197.91 109.93 201.78 109.72 205.55 111.56C212.93 115.16 218.78 120.18 220.47 128.74C221.24 132.63 219.81 135.96 217.48 138.93C215.27 141.74 212.8 144.35 210.62 147.18C206.06 153.09 203.69 159.54 206.84 166.89C207.81 169.15 209.27 171.24 210.7 173.27C214.43 178.53 214.85 184.23 212.87 190.14C209.58 199.96 202.51 206.66 194.16 212.2V212.19Z" fill="#0025FF"/>
<path opacity="0.54" d="M366.95 49.04C374.14 39.04 378.59 28.18 380.17 16.75C381.13 9.79 377.3 2.88 370.62 0.71C369.15 0.23 367.67 0 366.2 0C360.75 0 355.61 3.17 353.28 8.36C352.87 9.27 352.41 10.17 351.9 11.04C349.13 15.81 345.55 18.89 342.67 20.98C342.37 20.52 342.05 20.07 341.7 19.64C338.59 15.75 333.88 13.52 328.78 13.52C326.64 13.52 324.46 13.91 322.31 14.68C319.89 15.55 317.82 16.72 316.08 17.86C313.29 15.44 309.75 14.13 305.93 14.13C302.58 14.13 299.72 15.16 297.6 16.06C296.71 16.44 295.83 16.83 294.96 17.22C292.35 15.27 289.15 14.15 285.7 14.15C283.47 14.15 281.25 14.62 279.13 15.54C277.59 16.21 276.33 16.92 275.31 17.49C275.01 17.66 274.71 17.83 274.4 18L271.77 19.4C269.73 18.24 267.24 17.48 264.22 17.48C260.53 17.48 257.54 18.74 255.11 19.97C254.39 20.33 253.68 20.7 252.96 21.07C251.59 21.78 250.26 22.46 248.99 23.06C246.64 22.05 243.8 21.35 240.45 21.35C238.66 21.35 237.08 21.54 235.75 21.73C232.29 22.2 229.23 23.12 226.63 23.94C223.87 24.81 221.12 25.73 218.37 26.64C213.98 28.1 209.84 29.47 205.65 30.69C204.58 31 203.01 31.22 201.89 31.35C201.34 31.41 200.97 30.8 201.28 30.34C201.88 29.44 202.74 28.18 203.44 27.25C204.09 26.39 204.75 25.51 205.4 24.61C209.12 19.44 208.93 11.14 204.65 6.42C201.9 3.39 198.06 1.78 194.16 1.78C191.9 1.78 189.62 2.32 187.52 3.43C187.3 3.55 187.09 3.65 186.89 3.75C186.19 4.11 185.32 4.55 184.31 5.18C176.53 10.08 165.2 22.11 161.28 26.38C160.38 27.36 159.11 27.91 157.78 27.91H147.81C146.3 27.91 145.02 26.85 144.66 25.38C143.58 21.06 141.33 16.88 137.89 13.11C132.03 6.7 124.29 3.31 115.51 3.31C112.8 3.31 110.04 3.62 107.06 4.25C85.3 8.89 69.69 26.79 67.29 49.87C66.63 56.19 70.26 62.17 76.16 64.51C77.86 65.18 79.63 65.51 81.38 65.51C81.44 65.51 81.51 65.51 81.57 65.51C81.84 66.12 82.14 66.72 82.49 67.29C82.67 67.59 82.86 67.89 83.06 68.18C83.33 68.57 83.35 69.09 83.08 69.49C80.76 73.04 78.74 78.18 81.17 84.4C81.98 86.47 83.2 88.3 84.75 89.82C84.5 90.17 84.24 90.5 83.99 90.84C83.28 89.98 82.47 89.19 81.55 88.49C79.02 86.59 76.02 85.64 73.03 85.64C69.58 85.64 66.15 86.89 63.46 89.36C62.28 90.44 61.08 91.51 59.88 92.58C56.95 95.2 53.93 97.9 50.97 100.89C46.29 105.62 40.53 112.22 37.51 121.37C35.07 128.75 35.6 136.29 39.02 142.59C39.75 143.93 40.6 145.19 41.55 146.36C42.18 147.14 42.29 148.21 41.83 149.1L38.14 156.24C37.44 157.6 35.91 158.28 34.41 157.98C33.52 157.8 32.62 157.71 31.71 157.71C30.03 157.71 28.33 158.01 26.69 158.63C25.57 159.05 24.48 159.55 23.41 160.12C23.18 160.24 22.36 160.69 21.47 161.27C13.72 166.3 5.53002 175.44 2.77002 183.29H2.74002C1.31002 187 0.430015 190.97 0.120015 195.06C-1.03998 210.6 6.24002 223.7 20.61 231.94C26.72 235.44 33.07 237.21 39.49 237.21C42.25 237.21 44.97 236.88 47.64 236.24C48.55 241.03 51.9 245.15 56.69 246.9C58.29 247.48 59.93 247.77 61.56 247.77C66.38 247.77 71.02 245.3 73.66 240.99L74.75 239.2C74.91 238.99 75.07 238.77 75.23 238.56C75.42 238.3 75.68 237.96 75.81 237.8C77.17 236.44 78.5 235.03 79.83 233.63C80.11 242.3 78.19 251.36 73.66 262.8C71.87 267.32 69.64 272.96 67.83 278.68C65.26 286.82 66.88 294.39 72.16 299.81C71.9 300.42 71.62 301.03 71.34 301.66C70.83 302.8 70.32 303.95 69.84 305.1C69.05 306.96 66.65 312.61 69.31 319.01C69.52 319.5 69.74 319.98 69.99 320.44C69 322.42 67.98 324.46 66.99 326.6C63.51 334.15 65.85 339.84 67.55 342.56C67.7 342.8 67.87 343.06 68.06 343.32C67.46 344.83 66.88 346.38 66.34 348C63.71 355.85 66.36 361.25 68.18 363.77C68.33 363.98 68.48 364.18 68.64 364.37C68.56 364.51 68.48 364.64 68.39 364.78C66.56 367.89 65.37 371.49 64.94 375.21C64.5 379.06 65.24 382.73 67.03 385.83C66.15 386.15 65.21 386.44 64.2 386.75C60.58 387.87 57.08 388.13 53.36 388.4C50.9 388.58 48.32 388.58 48.22 388.58C47.29 388.58 46.5 388.56 45.9 388.54L43.97 388.44C43.72 388.43 43.47 388.42 43.22 388.42C36.45 388.42 30.53 393.24 29.28 400.05C28.03 406.86 31.88 413.07 38 415.78C40.47 416.87 43.02 417.84 45.6 418.65C50.14 420.08 59.67 421.75 71.56 421.75C72.4 421.75 73.26 421.75 74.13 421.72C103.26 420.73 113.67 401.04 118.71 396.32C119.36 395.71 120.22 395.36 121.12 395.31C121.32 395.31 121.49 395.29 121.62 395.27C122.06 395.22 122.46 395.48 122.59 395.91C122.69 396.26 122.81 396.61 122.94 396.95C125.35 403.42 131.18 407.83 138.93 409.05C143.01 409.69 147.29 410.01 152.01 410.01C152.6 410.01 153.18 410.01 153.77 410C159.7 409.9 165.14 408.64 169.99 406.28C173.12 409.18 177.35 410.8 182.05 410.8C182.49 410.8 182.94 410.79 183.4 410.76C190.03 410.34 195.76 408.78 200.54 406.11C203.77 409.71 208.49 411.77 213.58 411.77C214.79 411.77 216.02 411.66 217.26 411.43C220.03 410.93 226.31 409.79 232.54 405.79C235.52 410.44 240.28 413.54 246.7 414.98C250.32 415.79 253.99 416.19 257.94 416.19C264.87 416.19 271.39 414.93 276.95 413.74C305.26 407.72 329.3 392.51 348.4 368.55C351.11 365.15 353.55 361.71 355.91 358.38C356.84 357.07 357.77 355.76 358.71 354.46C363.1 348.4 362.44 339.86 356.76 334.99C356.72 334.95 356.67 334.92 356.63 334.88C355.25 333.72 355.15 331.67 356.43 330.41C367.04 319.99 373.36 305.82 375.26 288.13C376.89 273.01 373.4 258.71 370.19 247.94C364.42 228.63 351.43 214.37 332.63 206.69C330.03 205.63 327.39 204.68 324.68 203.82C323.3 203.39 322.89 201.65 323.93 200.64C332.36 192.43 338.81 181.84 343.19 168.97C344.09 166.32 344.76 163.81 345.41 161.37C345.67 160.41 345.92 159.44 346.19 158.48C347.72 153.04 345.86 147.42 341.84 143.93C340.56 142.81 340.04 141.08 340.59 139.47C343.17 131.9 343.83 123.23 342.43 113.7C340.5 100.59 334.51 89.57 328.86 81C328.61 80.62 328.81 80.13 329.25 80.01C332.01 79.29 334.95 78.21 337.75 76.32C350.16 67.96 359.7 59.01 366.92 48.98L366.95 49.04ZM176.6 213.65C176.6 213.65 176.6 213.69 176.6 213.72C176.6 213.72 176.58 213.7 176.57 213.69C176.58 213.68 176.59 213.66 176.6 213.65Z" fill="url(#paint1_linear_1268_93)"/>
</g>
<defs>
<linearGradient id="paint0_linear_1268_93" x1="14.9198" y1="394.18" x2="390.55" y2="18.55" gradientUnits="userSpaceOnUse">
<stop stop-color="white"/>
<stop offset="0.26" stop-color="#9E9E9E"/>
<stop offset="0.3" stop-color="#8A8889"/>
<stop offset="0.42" stop-color="#DEDDDD"/>
<stop offset="0.59" stop-color="#8E8D8E"/>
<stop offset="0.76" stop-color="#D5D3D4"/>
<stop offset="0.84" stop-color="#9B999A"/>
<stop offset="0.86" stop-color="#9D9B9C"/>
<stop offset="0.94" stop-color="#E3E2E2"/>
</linearGradient>
<linearGradient id="paint1_linear_1268_93" x1="14.92" y1="394.18" x2="390.55" y2="18.55" gradientUnits="userSpaceOnUse">
<stop stop-color="white"/>
<stop offset="0.26" stop-color="#9E9E9E" stop-opacity="0"/>
<stop offset="0.3" stop-color="#8A8889" stop-opacity="0"/>
<stop offset="0.32" stop-color="#8B898A" stop-opacity="0.01"/>
<stop offset="0.33" stop-color="#8F8D8E" stop-opacity="0.01"/>
<stop offset="0.35" stop-color="#969495" stop-opacity="0.0225"/>
<stop offset="0.36" stop-color="#A09E9F" stop-opacity="0.0729"/>
<stop offset="0.38" stop-color="#ACABAB" stop-opacity="0.1764"/>
<stop offset="0.39" stop-color="#BCBBBB" stop-opacity="0.36"/>
<stop offset="0.41" stop-color="#CECDCD" stop-opacity="0.6561"/>
<stop offset="0.42" stop-color="#DEDDDD"/>
<stop offset="0.43" stop-color="#D4D3D3" stop-opacity="0.7744"/>
<stop offset="0.45" stop-color="#C1C0C1" stop-opacity="0.4225"/>
<stop offset="0.47" stop-color="#B1B0B1" stop-opacity="0.2025"/>
<stop offset="0.49" stop-color="#A5A4A4" stop-opacity="0.0841"/>
<stop offset="0.52" stop-color="#9A999A" stop-opacity="0.0256"/>
<stop offset="0.54" stop-color="#939293" stop-opacity="0.01"/>
<stop offset="0.56" stop-color="#8F8E8F" stop-opacity="0.01"/>
<stop offset="0.58" stop-color="#8E8D8E" stop-opacity="0"/>
<stop offset="0.65" stop-color="#8E8D8E" stop-opacity="0"/>
<stop offset="0.68" stop-color="#908F90" stop-opacity="0.01"/>
<stop offset="0.7" stop-color="#949394" stop-opacity="0.01"/>
<stop offset="0.71" stop-color="#9A999A" stop-opacity="0.0324"/>
<stop offset="0.72" stop-color="#A1A0A1" stop-opacity="0.0784"/>
<stop offset="0.73" stop-color="#AAA9AA" stop-opacity="0.1681"/>
<stop offset="0.74" stop-color="#B5B4B5" stop-opacity="0.3136"/>
<stop offset="0.75" stop-color="#C2C0C1" stop-opacity="0.5476"/>
<stop offset="0.76" stop-color="#D5D3D4"/>
<stop offset="0.84" stop-color="#9B999A" stop-opacity="0"/>
<stop offset="0.86" stop-color="#9D9B9C" stop-opacity="0"/>
<stop offset="0.88" stop-color="#9D9B9C" stop-opacity="0.01"/>
<stop offset="0.89" stop-color="#A09E9F" stop-opacity="0.01"/>
<stop offset="0.9" stop-color="#A5A3A4" stop-opacity="0.0121"/>
<stop offset="0.91" stop-color="#B3B2B2" stop-opacity="0.1089"/>
<stop offset="0.92" stop-color="#BEBCBD" stop-opacity="0.2209"/>
<stop offset="0.93" stop-color="#D7D6D6" stop-opacity="0.7056"/>
<stop offset="0.94" stop-color="#E3E2E2"/>
</linearGradient>
<clipPath id="clip0_1268_93">
<rect width="380.31" height="421.78" fill="white"/>
</clipPath>
</defs>
</svg>
