<svg width="381" height="422" viewBox="0 0 381 422" fill="none" xmlns="http://www.w3.org/2000/svg">
<g clip-path="url(#clip0_1268_140)">
<path d="M42.5402 76.38C45.3502 78.27 48.2802 79.35 51.0402 80.07C51.4802 80.18 51.6802 80.68 51.4302 81.06C45.7802 89.63 39.7902 100.65 37.8602 113.76C36.4602 123.3 37.1202 131.96 39.7002 139.53C40.2502 141.14 39.7302 142.87 38.4502 143.99C34.4302 147.48 32.5702 153.1 34.1002 158.54C34.3702 159.5 34.6302 160.46 34.8802 161.43C35.5302 163.86 36.2002 166.38 37.1002 169.03C41.4802 181.9 47.9302 192.49 56.3602 200.7C57.3902 201.71 56.9902 203.44 55.6102 203.88C52.9102 204.73 50.2602 205.68 47.6602 206.75C28.8502 214.43 15.8702 228.7 10.1002 248C6.88022 258.77 3.40022 273.07 5.03022 288.19C6.93022 305.88 13.2602 320.05 23.8602 330.47C25.1402 331.73 25.0402 333.78 23.6602 334.94C23.6202 334.98 23.5702 335.01 23.5302 335.05C17.8602 339.92 17.2002 348.47 21.5802 354.52C22.5202 355.82 23.4502 357.13 24.3802 358.44C26.7402 361.77 29.1802 365.21 31.8902 368.61C50.9902 392.57 75.0402 407.77 103.34 413.8C108.91 414.98 115.42 416.25 122.35 416.25C126.3 416.25 129.97 415.85 133.59 415.04C140.01 413.6 144.77 410.5 147.75 405.85C153.97 409.85 160.26 410.99 163.03 411.49C164.27 411.71 165.51 411.83 166.71 411.83C171.8 411.83 176.52 409.78 179.75 406.17C184.53 408.85 190.26 410.41 196.89 410.82C197.36 410.85 197.81 410.86 198.24 410.86C202.94 410.86 207.16 409.25 210.3 406.34C215.15 408.7 220.59 409.97 226.52 410.06C227.11 410.06 227.7 410.07 228.28 410.07C233.01 410.07 237.28 409.76 241.36 409.11C249.11 407.89 254.93 403.47 257.35 397.01C257.48 396.66 257.59 396.32 257.7 395.97C257.83 395.55 258.23 395.28 258.67 395.33C258.8 395.34 258.98 395.36 259.17 395.37C260.06 395.41 260.92 395.76 261.58 396.38C266.61 401.1 277.02 420.79 306.16 421.78C307.03 421.81 307.89 421.81 308.73 421.81C320.62 421.81 330.14 420.14 334.69 418.71C337.26 417.9 339.82 416.94 342.29 415.84C348.41 413.13 352.22 406.69 351.01 400.11C349.76 393.3 343.84 388.48 337.07 388.48C336.82 388.48 336.57 388.48 336.32 388.5L334.39 388.6C333.79 388.62 333 388.64 332.07 388.64C331.97 388.64 329.39 388.64 326.93 388.46C323.22 388.19 319.71 387.93 316.09 386.81C315.08 386.5 314.14 386.21 313.26 385.89C315.06 382.79 315.79 379.12 315.35 375.27C314.92 371.55 313.73 367.95 311.9 364.84C311.82 364.7 311.74 364.56 311.65 364.43C311.81 364.23 311.96 364.03 312.11 363.83C313.92 361.31 316.57 355.91 313.95 348.06C313.41 346.44 312.83 344.89 312.23 343.38C312.42 343.11 312.59 342.86 312.74 342.62C314.44 339.9 316.78 334.22 313.3 326.66C312.31 324.51 311.29 322.47 310.3 320.5C310.55 320.04 310.77 319.56 310.98 319.07C313.64 312.67 311.24 307.02 310.45 305.16C309.96 304.01 309.45 302.87 308.95 301.72C308.67 301.09 308.4 300.48 308.13 299.87C313.4 294.45 315.03 286.87 312.46 278.74C310.65 273.02 308.42 267.39 306.63 262.86C302.1 251.41 300.18 242.36 300.46 233.69C301.8 235.09 303.12 236.49 304.48 237.86C304.61 238.02 304.87 238.36 305.06 238.62C305.22 238.83 305.38 239.05 305.54 239.26L306.63 241.05C309.26 245.36 313.9 247.83 318.73 247.83C320.35 247.83 322 247.55 323.6 246.96C328.39 245.21 331.74 241.09 332.65 236.3C335.32 236.94 338.04 237.27 340.8 237.27C347.22 237.27 353.57 235.5 359.68 232C374.06 223.76 381.34 210.67 380.17 195.12C379.86 191.03 378.98 187.07 377.55 183.34H377.52C374.75 175.51 366.56 166.36 358.82 161.33C357.93 160.75 357.11 160.3 356.88 160.18C355.82 159.61 354.72 159.11 353.6 158.69C351.96 158.07 350.26 157.77 348.58 157.77C347.67 157.77 346.77 157.86 345.88 158.04C344.38 158.34 342.85 157.67 342.15 156.3L338.46 149.16C338 148.27 338.11 147.19 338.74 146.42C339.69 145.25 340.54 143.99 341.27 142.65C344.69 136.35 345.22 128.81 342.78 121.43C339.75 112.28 333.99 105.68 329.32 100.95C326.36 97.96 323.34 95.26 320.41 92.64C319.21 91.57 318.02 90.5 316.83 89.42C314.13 86.95 310.7 85.7 307.26 85.7C304.27 85.7 301.28 86.64 298.74 88.55C297.82 89.24 297.01 90.04 296.3 90.9C296.04 90.56 295.78 90.23 295.54 89.88C297.09 88.36 298.3 86.53 299.12 84.46C301.55 78.24 299.53 73.1 297.21 69.55C296.95 69.15 296.96 68.64 297.23 68.24C297.43 67.95 297.62 67.66 297.8 67.35C298.15 66.77 298.45 66.18 298.72 65.57C298.78 65.57 298.85 65.57 298.91 65.57C300.66 65.57 302.43 65.24 304.13 64.57C310.03 62.23 313.66 56.25 313 49.93C310.6 26.86 295 8.95 273.23 4.31C270.25 3.68 267.49 3.37 264.78 3.37C256 3.37 248.26 6.76 242.4 13.17C238.96 16.94 236.71 21.12 235.63 25.44C235.26 26.91 233.99 27.97 232.48 27.97H222.51C221.18 27.97 219.91 27.42 219.01 26.44C215.09 22.17 203.76 10.14 195.98 5.24C194.98 4.61 194.11 4.17 193.4 3.81C193.2 3.71 193 3.61 192.77 3.49C190.67 2.37 188.39 1.84 186.13 1.84C182.23 1.84 178.39 3.45 175.64 6.48C171.36 11.19 171.17 19.5 174.89 24.67C175.54 25.58 176.2 26.45 176.85 27.31C177.55 28.24 178.41 29.5 179.01 30.4C179.32 30.86 178.95 31.47 178.4 31.41C177.28 31.28 175.71 31.06 174.64 30.75C170.45 29.53 166.31 28.15 161.92 26.7C159.17 25.79 156.42 24.88 153.66 24C151.06 23.18 147.99 22.26 144.54 21.79C143.2 21.61 141.62 21.41 139.84 21.41C136.5 21.41 133.66 22.11 131.3 23.12C130.03 22.52 128.7 21.84 127.33 21.13C126.62 20.76 125.9 20.39 125.18 20.03C122.74 18.8 119.75 17.54 116.07 17.54C113.05 17.54 110.56 18.3 108.52 19.46L105.89 18.06C105.58 17.9 105.28 17.72 104.98 17.55C103.96 16.98 102.7 16.26 101.16 15.6C99.0402 14.68 96.8202 14.21 94.5902 14.21C91.1402 14.21 87.9402 15.33 85.3302 17.28C84.4602 16.89 83.5802 16.5 82.6902 16.12C80.5702 15.22 77.7102 14.19 74.3602 14.19C70.5402 14.19 66.9902 15.5 64.2102 17.92C62.4702 16.78 60.4002 15.61 57.9802 14.74C55.8302 13.97 53.6502 13.58 51.5102 13.58C46.4102 13.58 41.7002 15.81 38.5902 19.7C38.2402 20.13 37.9202 20.58 37.6202 21.04C34.7302 18.95 31.1502 15.86 28.3902 11.1C27.8802 10.23 27.4202 9.32 27.0102 8.42C24.7002 3.17 19.5702 0 14.1102 0C12.6502 0 11.1602 0.23 9.70022 0.7C3.02022 2.88 -0.809779 9.79 0.150221 16.75C1.73022 28.19 6.17022 39.05 13.3702 49.04C20.5902 59.08 30.1302 68.02 42.5402 76.38ZM203.74 213.69C203.74 213.69 203.72 213.71 203.71 213.72C203.71 213.7 203.71 213.68 203.71 213.65C203.72 213.66 203.73 213.68 203.74 213.69Z" fill="#BCBEC0"/>
<path d="M165.31 228.96L168.31 226.08C169.17 225.22 169.62 224.71 169.63 223.99C169.62 223.2 168.99 222.71 168.17 222.7C167.29 222.71 166.73 223.25 166.73 224.12H165.29C165.28 222.51 166.49 221.47 168.19 221.48C169.9 221.47 171.08 222.5 171.09 223.93C171.08 224.89 170.61 225.67 168.96 227.24L167.45 228.73V228.8H171.22V230.07H165.34L165.32 228.97L165.31 228.96Z" fill="#002172"/>
<path d="M172.41 225.81C172.41 223.05 173.63 221.46 175.67 221.47C177.7 221.46 178.92 223.05 178.93 225.81C178.92 228.59 177.69 230.18 175.67 230.18C173.65 230.18 172.41 228.6 172.41 225.81ZM175.67 228.88C176.73 228.89 177.38 227.85 177.37 225.81C177.38 223.79 176.72 222.73 175.67 222.72C174.6 222.73 173.94 223.8 173.94 225.81C173.94 227.82 174.6 228.89 175.67 228.88Z" fill="#002172"/>
<path d="M180.19 228.96L183.19 226.08C184.05 225.22 184.5 224.71 184.51 223.99C184.5 223.2 183.87 222.71 183.05 222.7C182.17 222.71 181.61 223.25 181.61 224.12H180.17C180.16 222.51 181.37 221.47 183.07 221.48C184.78 221.47 185.96 222.5 185.97 223.93C185.96 224.89 185.49 225.67 183.84 227.24L182.33 228.73V228.8H186.1V230.07H180.22L180.2 228.97L180.19 228.96Z" fill="#002172"/>
<path d="M187.43 227.76H188.92C188.98 228.46 189.63 228.95 190.43 228.94C191.38 228.95 192.06 228.27 192.06 227.33C192.06 226.39 191.35 225.66 190.38 225.65C189.72 225.65 189.23 225.89 188.96 226.39H187.54L188.04 221.57H193.05V222.87H189.31L189.05 225.12H189.12C189.46 224.74 190.08 224.47 190.78 224.47C192.35 224.47 193.53 225.63 193.51 227.28C193.52 228.97 192.24 230.18 190.42 230.18C188.72 230.18 187.47 229.16 187.42 227.76H187.43Z" fill="#002172"/>
<path d="M114.88 211.69H102.79V210.34H108.01V207.46H104.11V201.07H113.5V207.46H109.6V210.34H114.88V211.69ZM111.89 206.17V202.39H105.71V206.17H111.89Z" fill="#002172"/>
<path d="M115.73 207.61H127.85V208.9H122.57V213.25H120.95V208.9H115.73V207.61ZM126.38 206.14H117.32V200.77H126.23V202.09H119V204.85H126.38V206.14Z" fill="#002172"/>
<path d="M131.69 201.07C133.31 201.05 134.39 202.55 134.57 205.03H135.86V200.29H137.42V212.65H135.86V206.35H134.58C134.45 208.94 133.33 210.52 131.69 210.52C130.05 210.52 128.84 208.71 128.84 205.78C128.84 202.85 129.96 201.06 131.69 201.07ZM131.69 208.96C132.57 208.96 133.1 207.85 133.1 205.78C133.1 203.71 132.57 202.59 131.69 202.6C130.85 202.59 130.34 203.71 130.34 205.78C130.34 207.85 130.85 208.96 131.69 208.96ZM140.12 213.28H138.56V200.05H140.12V213.28Z" fill="#002172"/>
<path d="M145.8 202.99H142.24V201.67H147.43C147.43 202.95 147.26 204.16 146.9 205.27H148.74V200.38H150.27V212.68H148.74V206.56H146.37C145.59 208.07 144.34 209.41 142.47 210.49L141.54 209.35C144.29 207.72 145.54 205.64 145.79 202.99H145.8ZM153.08 213.28H151.55V200.05H153.08V213.28Z" fill="#002172"/>
<path d="M170.27 208.03H158.21V206.71H163.4V205.45H159.77V200.38H161.36V201.7H167.09V200.38H168.71V205.45H165.05V206.71H170.27V208.03ZM159.53 209.08H168.8V213.28H167.15V210.37H159.53V209.08ZM167.09 204.13V202.9H161.36V204.13H167.09Z" fill="#002172"/>
<path d="M175.04 201.01C177.03 201.03 178.49 202.84 178.49 205.69C178.49 208.54 177.03 210.39 175.04 210.37C173.03 210.39 171.57 208.57 171.59 205.69C171.57 202.84 173.03 201.03 175.04 201.01ZM175.04 208.9C176.15 208.92 176.91 207.73 176.93 205.69C176.91 203.68 176.15 202.48 175.04 202.48C173.93 202.48 173.15 203.68 173.15 205.69C173.15 207.7 173.92 208.92 175.04 208.9ZM182.18 213.31H180.53V200.05H182.18V213.31Z" fill="#002172"/>
<path d="M192.9 202.78H188.33V201.43H194.57C194.56 205.31 192.94 208.73 188.54 210.91L187.61 209.65C190.85 208.03 192.59 205.78 192.9 202.78ZM198.05 205.24H200.03V206.59H198.05V213.25H196.43V200.05H198.05V205.24Z" fill="#002172"/>
<path d="M212.72 207.67H200.66V206.38H212.72V207.67ZM201.98 208.96H211.25V213.31H209.66V210.28H201.98V208.96ZM202.13 200.53H211.28V201.82H203.75V203.86H211.4V205.18H202.13V200.53Z" fill="#002172"/>
<path d="M213.53 202.09H216.68V200.23H218.3V202.09H221.36V203.41H213.53V202.09ZM217.49 204.25C219.4 204.25 220.81 205.54 220.82 207.37C220.81 209.2 219.4 210.47 217.49 210.49C215.56 210.48 214.15 209.2 214.16 207.37C214.14 205.54 215.55 204.25 217.49 204.25ZM217.49 209.14C218.51 209.14 219.25 208.45 219.26 207.37C219.25 206.29 218.51 205.58 217.49 205.6C216.46 205.59 215.71 206.29 215.72 207.37C215.71 208.45 216.46 209.14 217.49 209.14ZM223.97 205.33H226.01V206.68H223.97V213.28H222.38V200.05H223.97V205.33Z" fill="#002172"/>
<path d="M232.02 202.75H227.33V201.46H233.69C233.68 205.4 232.15 208.75 227.51 210.94L226.67 209.65C230.12 208 231.72 205.77 232.02 202.75ZM237.62 213.28H235.97V200.05H237.62V213.28Z" fill="#002172"/>
<path d="M251.63 207.28H239.51V206.05H251.63V207.28ZM240.92 208.09H250.16V211.09H242.57V212.02H250.55V213.16H240.95V210.04H248.54V209.23H240.92V208.09ZM241.01 200.35H250.13V203.32H242.66V204.19H250.34V205.3H241.04V202.27H248.48V201.46H241.01V200.35Z" fill="#002172"/>
<path d="M254.21 209.83C254.82 209.84 255.35 210.35 255.35 210.97C255.35 211.59 254.82 212.11 254.21 212.11C253.6 212.11 253.07 211.6 253.07 210.97C253.07 210.34 253.6 209.85 254.21 209.83ZM255.05 208.87H253.4L253.22 201.37H255.23L255.05 208.87Z" fill="#002172"/>
</g>
<defs>
<clipPath id="clip0_1268_140">
<rect width="380.31" height="421.78" fill="white"/>
</clipPath>
</defs>
</svg>
